{"title":"Team Squirt 3","uid":6987583,"size":1659937888,"categoryP":"porn","categoryS":"movies","magnet":"?xt=urn:btih:dbd63284c59608224a77cfd096b5d3029adaa635&amp;dn=Team+Squirt+3&amp;tr=udp%3A%2F%2Ftracker.openbittorrent.com%3A80&amp;tr=udp%3A%2F%2Fopen.demonii.com%3A1337&amp;tr=udp%3A%2F%2Ftracker.coppersurfer.tk%3A6969&amp;tr=udp%3A%2F%2Fexodus.desync.com%3A6969","seeders":0,"leechers":1,"uploader":"tigris1968","files":137,"time":1327616284,"description":"Team Squirt # 3 DVD\nVivid\n\nStudio     Vivid\nDiscs     1\nRelease Date     Feb 06, 2008\n\nCategory     All Sex, Squirting\nStarring     Mark Ashley, Kelly Wells, Missy Monroe, Jerry,\n\nChristian, Avy Lee Roth, Jasmine Tame, Felony, Jack Venice.\n\n \n\nfrond \n &lt;a href=&quot;\nhttp://bayimg.com/oaMDOAaDD&quot; rel=&quot;nofollow&quot; target=&quot;_NEW&quot;&gt;\nhttp://bayimg.com/oaMDOAaDD&lt;/a&gt;\n\nback\n &lt;a href=&quot;\nhttp://bayimg.com/OamDPaADD&quot; rel=&quot;nofollow&quot; target=&quot;_NEW&quot;&gt;\nhttp://bayimg.com/OamDPaADD&lt;/a&gt;\n\nscreen\n &lt;a href=&quot;\nhttp://bayimg.com/PaMDbaAdD&quot; rel=&quot;nofollow&quot; target=&quot;_NEW&quot;&gt;\nhttp://bayimg.com/PaMDbaAdD&lt;/a&gt;\n\nGeneral\nComplete name                    : C:\\Downloads\\Team Squirt 3\\dvd\\Team Squirt 3.avi\nFormat                           : AVI\nFormat/Info                      : Audio Video Interleave\nFormat profile                   : OpenDML\nFile size                        : 1.51 GiB\nDuration                         : 2h 41mn\nOverall bit rate                 : 1 337 Kbps\nWriting application              : MEncoder SVN-r30881(20100311-gcc4.3.3)\nWriting library                  : MPlayer\n\nVideo\nID                               : 0\nFormat                           : MPEG-4 Visual\nFormat profile                   : Advanced Simple@L5\nFormat settings, BVOP            : 2\nFormat settings, QPel            : No\nFormat settings, GMC             : No warppoints\nFormat settings, Matrix          : Default (H.263)\nCodec ID                         : XVID\nCodec ID/Hint                    : XviD\nDuration                         : 2h 41mn\nBit rate                         : 40.3 Kbps\nWidth                            : 720 pixels\nHeight                           : 480 pixels\nDisplay aspect ratio             : 3:2\nFrame rate                       : 25.000 fps\nStandard                         : NTSC\nColor space                      : YUV\nChroma subsampling               : 4:2:0\nBit depth                        : 8 bits\nScan type                        : Progressive\nCompression mode                 : Lossy\nBits/(Pixel*Frame)               : 0.005\nStream size                      : 46.7 MiB (3%)\nWriting library                  : XviD 1.2.1 (UTC 2008-12-04)\n\nAudio\nID                               : 1\nFormat                           : MPEG Audio\nCodec ID                         : 55\nCodec ID/Hint                    : MP3\nDuration                         : 2h 41mn\nBit rate                         : 128 Kbps\nChannel(s)                       : 2 channels\nSampling rate                    : 44.1 KHz\nCompression mode                 : Lossy\nStream size                      : 148 MiB (10%)\nAlignment                        : Aligned on interleaves","torrent":{"xt":"urn:btih:dbd63284c59608224a77cfd096b5d3029adaa635","amp;dn":"Team+Squirt+3","amp;tr":["udp%3A%2F%2Ftracker.openbittorrent.com%3A80","udp%3A%2F%2Fopen.demonii.com%3A1337","udp%3A%2F%2Ftracker.coppersurfer.tk%3A6969","udp%3A%2F%2Fexodus.desync.com%3A6969"],"infoHash":"dbd63284c59608224a77cfd096b5d3029adaa635","infoHashBuffer":{"type":"Buffer","data":[219,214,50,132,197,150,8,34,74,119,207,208,150,181,211,2,154,218,166,53]},"announce":[],"urlList":[]}}